<?xml version="1.0" standalone="no"?><!DOCTYPE svg PUBLIC "-//W3C//DTD SVG 1.1//EN" "http://www.w3.org/Graphics/SVG/1.1/DTD/svg11.dtd"><svg height="131" node-id="1" sillyvg="true" template-height="131" template-width="238" version="1.1" viewBox="0 0 238 131" width="238" xmlns="http://www.w3.org/2000/svg" xmlns:xlink="http://www.w3.org/1999/xlink"><defs node-id="82"><linearGradient gradientUnits="userSpaceOnUse" id="未命名的渐变_217" node-id="5" spreadMethod="pad" x1="119.2" x2="119.2" y1="131.47" y2="63.06"><stop offset="0" stop-color="#ffffff"></stop><stop offset="0.38" stop-color="#fdfeff"></stop><stop offset="0.53" stop-color="#f6fafe"></stop><stop offset="0.65" stop-color="#e9f4fc"></stop><stop offset="0.75" stop-color="#d8eaf9"></stop><stop offset="0.84" stop-color="#c1def6"></stop><stop offset="0.91" stop-color="#a4cff1"></stop><stop offset="0.98" stop-color="#83beec"></stop><stop offset="1" stop-color="#7ab9eb"></stop></linearGradient><linearGradient gradientUnits="userSpaceOnUse" id="未命名的渐变_19" node-id="15" spreadMethod="pad" x1="24.2" x2="24.2" y1="82.96" y2="73.85"><stop offset="0" stop-color="#ffffff"></stop><stop offset="1" stop-color="#7ab9eb"></stop></linearGradient><linearGradient gradientUnits="userSpaceOnUse" id="未命名的渐变_19-2" node-id="18" spreadMethod="pad" x1="210.66" x2="210.66" y1="65.28" y2="51.54"><stop offset="0" stop-color="#ffffff"></stop><stop offset="1" stop-color="#7ab9eb"></stop></linearGradient><linearGradient gradientUnits="userSpaceOnUse" id="未命名的渐变_38" node-id="19" spreadMethod="pad" x1="138.4" x2="172.47" y1="78.28" y2="137.27"><stop offset="0" stop-color="#5caae8" stop-opacity="0.5"></stop><stop offset="0.06" stop-color="#6eb3eb" stop-opacity="0.45"></stop><stop offset="0.25" stop-color="#a2cef2" stop-opacity="0.29"></stop><stop offset="0.44" stop-color="#cbe4f8" stop-opacity="0.16"></stop><stop offset="0.63" stop-color="#e8f3fc" stop-opacity="0.07"></stop><stop offset="0.82" stop-color="#f9fcfe" stop-opacity="0.02"></stop><stop offset="1" stop-color="#ffffff" stop-opacity="0"></stop></linearGradient><linearGradient gradientUnits="userSpaceOnUse" id="未命名的渐变_248" node-id="27" spreadMethod="pad" x1="113.31" x2="113.31" y1="2616.29" y2="2641.91"><stop offset="0" stop-color="#5caae8"></stop><stop offset="0.09" stop-color="#6cb2ea"></stop><stop offset="0.25" stop-color="#80bced"></stop><stop offset="0.43" stop-color="#8ec3ef"></stop><stop offset="0.64" stop-color="#96c8f1"></stop><stop offset="1" stop-color="#99c9f1"></stop></linearGradient><linearGradient gradientUnits="userSpaceOnUse" id="未命名的渐变_234" node-id="34" spreadMethod="pad" x1="119.2" x2="119.2" y1="2628.3" y2="2544.34"><stop offset="0" stop-color="#b8daf5"></stop><stop offset="0.04" stop-color="#beddf6"></stop><stop offset="0.2" stop-color="#d2e7f9"></stop><stop offset="0.39" stop-color="#e0eefb"></stop><stop offset="0.62" stop-color="#e8f3fd"></stop><stop offset="1" stop-color="#ebf4fd"></stop></linearGradient><linearGradient gradientUnits="userSpaceOnUse" id="未命名的渐变_242" node-id="41" spreadMethod="pad" x1="132.62" x2="132.62" y1="2544.31" y2="2642.29"><stop offset="0" stop-color="#7ab9eb"></stop><stop offset="0.1" stop-color="#8bc2ee"></stop><stop offset="0.25" stop-color="#9fcdf1"></stop><stop offset="0.43" stop-color="#add4f3"></stop><stop offset="0.64" stop-color="#b5d9f5"></stop><stop offset="1" stop-color="#b8daf5"></stop></linearGradient><linearGradient gradientTransform="matrix(0 1.05 -1.45 0 -42.49 -84.07)" gradientUnits="userSpaceOnUse" id="未命名的渐变_14" node-id="48" spreadMethod="pad" x1="126.11" x2="127.87" y1="-114.49" y2="-103.66"><stop offset="0" stop-color="#5caae8" stop-opacity="0.5"></stop><stop offset="1" stop-color="#ffffff" stop-opacity="0"></stop></linearGradient><linearGradient gradientTransform="matrix(-1 0.03 0.03 1 969.61 -10.83)" gradientUnits="userSpaceOnUse" id="未命名的渐变_18" node-id="51" spreadMethod="pad" x1="856.71" x2="849.92" y1="20.8" y2="17.11"><stop offset="0" stop-color="#007adc"></stop><stop offset="1" stop-color="#0ab0ed"></stop></linearGradient><linearGradient gradientUnits="userSpaceOnUse" id="未命名的渐变_18-2" node-id="54" spreadMethod="pad" x1="-168.38" x2="-142.03" y1="43.56" y2="28.35"><stop offset="0" stop-color="#007adc"></stop><stop offset="1" stop-color="#0ab0ed"></stop></linearGradient></defs><g node-id="248"><path d="M 238.40 97.26 C 238.40 116.15 185.03 131.46 119.20 131.46 C 53.37 131.46 -0.00 116.15 0.00 97.26 C -0.00 78.37 53.37 63.06 119.20 63.06 C 185.03 63.06 238.40 78.37 238.40 97.26 Z" fill="url(#未命名的渐变_217)" fill-rule="nonzero" group-id="1" node-id="195" stroke="none" target-height="68.40001" target-width="238.4" target-x="0" target-y="63.06"></path><path d="M 28.76 78.41 C 28.76 80.93 26.72 82.97 24.20 82.97 C 21.68 82.97 19.64 80.93 19.64 78.41 C 19.64 75.89 21.68 73.85 24.20 73.85 C 26.72 73.85 28.76 75.89 28.76 78.41 Z" fill="url(#未命名的渐变_19)" fill-rule="nonzero" group-id="1" node-id="197" stroke="none" target-height="9.120003" target-width="9.120001" target-x="19.64" target-y="73.85"></path><path d="M 217.53 58.41 C 217.53 62.20 214.45 65.28 210.66 65.28 C 206.87 65.28 203.79 62.20 203.79 58.41 C 203.79 54.62 206.87 51.54 210.66 51.54 C 214.45 51.54 217.53 54.62 217.53 58.41 Z" fill="url(#未命名的渐变_19-2)" fill-rule="nonzero" group-id="1" node-id="199" stroke="none" target-height="13.739998" target-width="13.7400055" target-x="203.79" target-y="51.54"></path><path d="M 206.60 117.57 L 104.27 98.00 L 130.94 128.37 C 160.74 127.51 187.32 123.53 206.60 117.57 Z" fill="url(#未命名的渐变_38)" fill-rule="nonzero" group-id="1" node-id="201" stroke="none" target-height="30.369995" target-width="102.33001" target-x="104.27" target-y="98"></path><path d="M 104.90 97.60 L 104.90 97.60 L 121.72 74.17 L 108.48 72.00 C 107.35 80.37 106.03 89.26 104.90 97.62" fill="url(#未命名的渐变_248)" fill-rule="nonzero" group-id="1" node-id="203" stroke="none" target-height="25.620003" target-width="16.82" target-x="104.9" target-y="72"></path><path d="M 72.55 64.88 L 156.14 84.00 C 156.47 84.08 156.81 84.01 157.09 83.82 C 157.36 83.63 157.55 83.33 157.59 83.00 L 166.78 0.00 L 72.15 62.72 C 71.75 62.98 71.54 63.46 71.63 63.93 C 71.72 64.41 72.08 64.78 72.55 64.88 Z" fill="url(#未命名的渐变_234)" fill-rule="nonzero" group-id="1" node-id="205" stroke="none" target-height="84.08" target-width="95.24" target-x="71.54" target-y="0"></path><path d="M 166.79 0.00 L 98.45 70.34 L 104.67 98.00 L 113.20 73.63 Z" fill="url(#未命名的渐变_242)" fill-rule="nonzero" group-id="1" node-id="207" stroke="none" target-height="98" target-width="68.34" target-x="98.45" target-y="0"></path><g node-id="249"><path d="M 116.59 42.15 L 120.01 42.81 L 122.91 43.89 L 125.42 45.40 L 127.18 47.09 L 128.01 48.40 L 128.44 49.71 L 128.50 51.06 L 128.14 52.36 L 127.44 53.55 L 126.33 54.64 L 124.25 55.90 L 121.46 56.82 L 118.40 57.23 L 114.92 57.12 L 111.50 56.45 L 108.60 55.38 L 106.09 53.87 L 104.33 52.18 L 103.50 50.87 L 103.07 49.56 L 103.01 48.21 L 103.37 46.90 L 104.07 45.72 L 105.18 44.62 L 107.26 43.37 L 110.05 42.45 L 113.11 42.04 L 116.59 42.15 Z" fill="url(#未命名的渐变_14)" fill-rule="nonzero" group-id="1,2" node-id="211" stroke="none" target-height="15.189999" target-width="25.489998" target-x="103.01" target-y="42.04"></path></g><path d="M 96.36 50.62 C 96.49 49.36 96.91 49.07 97.10 49.00 C 97.12 48.99 97.15 48.99 97.17 49.01 C 97.19 49.02 97.21 49.04 97.21 49.07 C 97.22 49.21 97.27 49.35 97.34 49.48 C 97.37 49.54 97.43 49.58 97.50 49.58 C 97.57 49.58 97.63 49.54 97.66 49.48 L 98.44 47.62 L 95.44 46.40 C 95.09 47.39 94.88 48.42 94.81 49.46 C 94.78 49.79 94.85 50.11 95.01 50.40 C 95.21 50.85 95.74 51.06 96.20 50.87 C 96.30 50.82 96.36 50.73 96.36 50.62 Z" fill="#fed4c2" fill-rule="nonzero" group-id="1" node-id="214" stroke="none" target-height="4.66" target-width="3.6600037" target-x="94.78" target-y="46.4"></path><path d="M 127.47 74.01 L 130.14 74.01 L 130.14 77.24 L 127.47 77.24 Z" fill="#ffd5c3" fill-rule="nonzero" group-id="1" node-id="216" stroke="none" target-height="3.2299957" target-width="2.6699982" target-x="127.47" target-y="74.01"></path><path d="M 134.61 69.18 L 137.22 68.60 L 137.99 72.08 L 135.38 72.65 Z" fill="#feb99b" fill-rule="nonzero" group-id="1,3" node-id="220" stroke="none" target-height="4.050003" target-width="3.380005" target-x="134.61" target-y="68.6"></path><path d="M 122.45 46.88 C 122.29 45.62 121.86 45.35 121.66 45.29 C 121.64 45.28 121.61 45.28 121.59 45.30 C 121.57 45.31 121.55 45.33 121.55 45.36 C 121.54 45.50 121.50 45.64 121.43 45.77 C 121.40 45.83 121.34 45.87 121.27 45.87 C 121.20 45.87 121.14 45.83 121.11 45.77 L 120.28 43.93 L 123.28 42.63 C 123.65 43.59 123.89 44.60 124.00 45.63 C 124.04 45.96 123.97 46.29 123.82 46.58 C 123.63 47.04 123.11 47.26 122.65 47.09 C 122.55 47.06 122.47 46.98 122.45 46.88 Z" fill="#fed4c2" fill-rule="nonzero" group-id="1" node-id="223" stroke="none" target-height="4.6299973" target-width="3.7600021" target-x="120.28" target-y="42.63"></path><path d="M 116.35 22.27 L 118.68 31.42 L 123.53 42.51 L 119.99 44.04 L 114.53 33.28 L 110.50 20.33 L 116.35 22.27 Z" fill="url(#未命名的渐变_18)" fill-rule="nonzero" group-id="1" node-id="225" stroke="none" target-height="23.710001" target-width="13.029999" target-x="110.5" target-y="20.33"></path><path d="M 107.88 46.36 C 107.88 46.36 109.58 52.66 128.50 52.36 C 129.64 58.29 131.61 64.04 134.34 69.43 L 137.74 69.89 L 134.74 50.81 C 134.48 49.10 133.35 47.66 131.75 47.00 C 128.12 45.48 116.50 43.52 116.50 43.52 Z" fill="#343434" fill-rule="nonzero" group-id="1" node-id="227" stroke="none" target-height="26.369999" target-width="29.860008" target-x="107.88" target-y="43.52"></path><path d="M 105.18 46.00 C 105.18 46.00 104.76 54.85 124.00 56.45 C 124.25 62.52 125.37 68.52 127.30 74.27 L 130.44 74.44 L 130.76 55.19 C 130.80 53.49 129.96 51.90 128.54 50.97 C 125.25 48.82 114.17 44.80 114.17 44.80 Z" fill="#5c5c5c" fill-rule="nonzero" group-id="1" node-id="229" stroke="none" target-height="29.640003" target-width="26.04" target-x="104.76" target-y="44.8"></path><path d="M 127.50 76.00 C 127.24 75.88 126.81 76.19 126.50 77.22 C 126.19 78.25 125.79 78.72 126.60 79.10 C 127.41 79.48 132.07 81.17 133.39 81.67 C 133.84 81.84 133.90 81.34 133.92 81.22 C 134.03 80.70 133.92 79.83 132.56 79.15 C 131.56 78.57 130.93 77.15 130.46 76.99 C 129.99 76.83 129.63 77.19 128.88 76.86 C 128.40 76.60 127.94 76.31 127.50 76.00 Z" fill="#3e3e3e" fill-rule="nonzero" group-id="1" node-id="231" stroke="none" target-height="5.959999" target-width="8.239998" target-x="125.79" target-y="75.88"></path><path d="M 134.87 71.00 C 134.60 70.89 134.19 71.22 133.87 72.26 C 133.55 73.30 133.23 73.79 134.05 74.14 C 134.87 74.49 139.61 75.97 140.95 76.40 C 141.40 76.55 141.44 76.05 141.46 75.93 C 141.54 75.41 141.46 74.54 140.01 73.93 C 139.01 73.39 138.29 72.03 137.82 71.87 C 137.35 71.71 137.00 72.10 136.24 71.81 C 135.77 71.56 135.31 71.29 134.87 71.00 Z" fill="#3e3e3e" fill-rule="nonzero" group-id="1" node-id="233" stroke="none" target-height="5.6600037" target-width="8.309998" target-x="133.23" target-y="70.89"></path><path d="M 107.29 16.18 L 110.61 15.63 L 111.62 21.74 L 108.31 22.29 Z" fill="#feb99b" fill-rule="nonzero" group-id="1,4" node-id="237" stroke="none" target-height="6.660001" target-width="4.330002" target-x="107.29" target-y="15.63"></path><path d="M 112.32 11.61 C 112.32 11.61 113.87 16.99 112.50 17.73 C 111.35 18.35 108.11 17.66 107.34 16.73 C 106.42 15.63 106.82 12.89 106.82 12.89 L 109.50 10.40 L 112.05 10.77 Z" fill="#ffd5c3" fill-rule="nonzero" group-id="1" node-id="240" stroke="none" target-height="7.950001" target-width="7.4500046" target-x="106.42" target-y="10.4"></path><path d="M 107.51 17.48 C 107.51 17.48 108.00 17.48 107.89 16.40 C 107.88 16.34 107.83 16.28 107.77 16.27 C 107.44 16.22 107.15 16.04 106.98 15.76 C 106.81 15.48 106.77 15.13 106.87 14.82 C 107.06 13.66 108.07 14.36 108.42 14.82 C 108.43 14.84 108.45 14.86 108.47 14.86 C 108.50 14.86 108.52 14.84 108.53 14.82 C 108.53 13.95 108.62 11.44 110.33 11.04 C 112.40 10.56 112.33 12.46 112.33 12.46 C 112.33 12.46 112.60 12.30 112.33 10.93 C 112.33 10.93 112.76 11.19 112.71 12.06 C 112.71 12.06 112.94 11.96 112.87 11.37 C 112.79 10.71 112.42 10.11 111.87 9.74 C 110.55 8.97 108.95 8.84 107.52 9.37 C 107.08 9.50 106.69 9.77 106.41 10.14 C 106.27 10.33 106.16 10.56 106.11 10.79 C 105.13 11.04 104.49 11.99 104.63 13.00 C 104.83 14.68 105.52 15.81 106.31 16.19 C 106.85 16.47 107.27 16.92 107.51 17.48 Z" fill="#301b20" fill-rule="nonzero" group-id="1" node-id="242" stroke="none" target-height="8.639999" target-width="8.450005" target-x="104.49" target-y="8.84"></path><path d="M 119.48 45.11 L 116.35 22.27 C 116.35 22.27 115.45 19.13 111.21 19.36 C 111.21 19.36 111.39 21.11 110.54 21.31 C 109.69 21.51 107.75 18.88 107.75 18.88 C 107.75 18.88 102.88 21.62 102.20 23.88 L 102.20 23.88 C 102.17 23.97 102.15 24.05 102.14 24.14 L 99.71 35.06 L 95.16 46.28 L 98.74 47.71 L 103.83 37.00 L 105.21 47.10 Z" fill="url(#未命名的渐变_18-2)" fill-rule="nonzero" group-id="1" node-id="244" stroke="none" target-height="28.83" target-width="24.32" target-x="95.16" target-y="18.88"></path><path d="M 103.91 36.81 L 103.83 36.97 L 103.83 36.97 C 104.41 36.87 104.88 36.42 105.00 35.84 L 107.45 24.17 Z" fill="#007adc" fill-rule="nonzero" group-id="1" node-id="246" stroke="none" target-height="12.800001" target-width="3.619995" target-x="103.83" target-y="24.17"></path></g></svg>