<svg viewBox="0 0 238.41 135.47" xmlns:xlink="http://www.w3.org/1999/xlink" xmlns="http://www.w3.org/2000/svg"><defs><style>.cls-1{fill:url(#未命名的渐变_217);}.cls-2{fill:url(#未命名的渐变_19);}.cls-3{fill:url(#未命名的渐变_19-2);}.cls-4{fill:url(#未命名的渐变_255);}.cls-5{fill:url(#未命名的渐变_16);}.cls-6{fill:url(#未命名的渐变_162);}.cls-7{fill:url(#未命名的渐变_162-2);}.cls-8{fill:url(#未命名的渐变_164);}.cls-9{fill:url(#未命名的渐变_180);}.cls-10{fill:url(#未命名的渐变_248);}.cls-11{fill:url(#未命名的渐变_234);}.cls-12{fill:#feb99b;}.cls-13{fill:#343434;}.cls-14{fill:#ffd5c3;}.cls-15{fill:#5c5c5c;}.cls-16{fill:#3e3e3e;}.cls-17{fill:#fed4c2;}.cls-18{fill:#301b20;}.cls-19{fill:url(#未命名的渐变_18);}.cls-20{fill:url(#未命名的渐变_18-2);}.cls-21{fill:url(#未命名的渐变_18-3);}</style><linearGradient gradientUnits="userSpaceOnUse" y2="67.07" x2="119.2" y1="135.47" x1="119.2" id="未命名的渐变_217"><stop stop-color="#fff" offset="0"></stop><stop stop-color="#fdfeff" offset="0.38"></stop><stop stop-color="#f6fafe" offset="0.53"></stop><stop stop-color="#e9f4fc" offset="0.65"></stop><stop stop-color="#d8eaf9" offset="0.75"></stop><stop stop-color="#c1def6" offset="0.84"></stop><stop stop-color="#a4cff1" offset="0.91"></stop><stop stop-color="#83beec" offset="0.98"></stop><stop stop-color="#7ab9eb" offset="1"></stop></linearGradient><linearGradient gradientUnits="userSpaceOnUse" y2="77.72" x2="24.81" y1="86.83" x1="24.81" id="未命名的渐变_19"><stop stop-color="#fff" offset="0"></stop><stop stop-color="#7ab9eb" offset="1"></stop></linearGradient><linearGradient xlink:href="#未命名的渐变_19" y2="55.4" x2="211.28" y1="69.14" x1="211.28" id="未命名的渐变_19-2"></linearGradient><linearGradient gradientUnits="userSpaceOnUse" y2="103.13" x2="170.68" y1="113.51" x1="170.68" id="未命名的渐变_255"><stop stop-opacity="0.3" stop-color="#5caae8" offset="0"></stop><stop stop-opacity="0" stop-color="#fff" offset="1"></stop></linearGradient><linearGradient gradientUnits="userSpaceOnUse" y2="75.66" x2="49.44" y1="98.64" x1="55.6" id="未命名的渐变_16"><stop stop-opacity="0.5" stop-color="#5caae8" offset="0"></stop><stop stop-opacity="0.31" stop-color="#99caf1" offset="0.29"></stop><stop stop-opacity="0.14" stop-color="#d0e7f8" offset="0.6"></stop><stop stop-opacity="0.04" stop-color="#f2f8fd" offset="0.85"></stop><stop stop-opacity="0" stop-color="#fff" offset="1"></stop></linearGradient><linearGradient gradientUnits="userSpaceOnUse" gradientTransform="matrix(64.01, 0, 0, -223.01, 76085.41, -163773.18)" y2="-734.65" x2="-1187.53" y1="-734.91" x1="-1187.46" id="未命名的渐变_162"><stop stop-color="#7ab9eb" offset="0"></stop><stop stop-color="#83beed" offset="0.03"></stop><stop stop-color="#a3cff2" offset="0.14"></stop><stop stop-color="#bedcf6" offset="0.25"></stop><stop stop-color="#d2e7f9" offset="0.38"></stop><stop stop-color="#e0eefb" offset="0.53"></stop><stop stop-color="#e8f3fd" offset="0.71"></stop><stop stop-color="#ebf4fd" offset="1"></stop></linearGradient><linearGradient xlink:href="#未命名的渐变_162" gradientTransform="matrix(212, 0, 0, -222.18, 253809.33, -163171.85)" y2="-734.61" x2="-1196.72" y1="-734.88" x1="-1196.55" id="未命名的渐变_162-2"></linearGradient><linearGradient gradientUnits="userSpaceOnUse" y2="87.98" x2="122.62" y1="59.55" x1="122.62" id="未命名的渐变_164"><stop stop-color="#5caae8" offset="0"></stop><stop stop-color="#5eabe8" offset="0"></stop><stop stop-color="#83beee" offset="0.1"></stop><stop stop-color="#a3cff2" offset="0.2"></stop><stop stop-color="#bedcf6" offset="0.31"></stop><stop stop-color="#d2e7f9" offset="0.43"></stop><stop stop-color="#e0eefb" offset="0.56"></stop><stop stop-color="#e8f3fd" offset="0.73"></stop><stop stop-color="#ebf4fd" offset="1"></stop></linearGradient><linearGradient gradientUnits="userSpaceOnUse" gradientTransform="matrix(274, 0, 0, -53.41, 328175.34, -40270.77)" y2="-754.7" x2="-1197.2" y1="-754.7" x1="-1197.38" id="未命名的渐变_180"><stop stop-color="#5caae8" offset="0"></stop><stop stop-color="#71b5eb" offset="0.08"></stop><stop stop-color="#8bc2ef" offset="0.2"></stop><stop stop-color="#9fcdf1" offset="0.34"></stop><stop stop-color="#add4f3" offset="0.5"></stop><stop stop-color="#b5d9f5" offset="0.69"></stop><stop stop-color="#b8daf5" offset="1"></stop></linearGradient><linearGradient gradientUnits="userSpaceOnUse" gradientTransform="matrix(155.4, 0, 0, -125.54, 185852.16, -92888.34)" y2="-739.95" x2="-1195.28" y1="-740.19" x1="-1195.28" id="未命名的渐变_248"><stop stop-color="#5caae8" offset="0"></stop><stop stop-color="#6cb2ea" offset="0.09"></stop><stop stop-color="#80bced" offset="0.25"></stop><stop stop-color="#8ec3ef" offset="0.43"></stop><stop stop-color="#96c8f1" offset="0.64"></stop><stop stop-color="#99c9f1" offset="1"></stop></linearGradient><linearGradient gradientUnits="userSpaceOnUse" gradientTransform="matrix(153.82, 0, 0, -125.53, 183969.16, -92888.19)" y2="-740.24" x2="-1195.25" y1="-739.95" x1="-1195.25" id="未命名的渐变_234"><stop stop-color="#b8daf5" offset="0"></stop><stop stop-color="#beddf6" offset="0.04"></stop><stop stop-color="#d2e7f9" offset="0.2"></stop><stop stop-color="#e0eefb" offset="0.39"></stop><stop stop-color="#e8f3fd" offset="0.62"></stop><stop stop-color="#ebf4fd" offset="1"></stop></linearGradient><linearGradient gradientUnits="userSpaceOnUse" gradientTransform="matrix(-1, 0, 0, 1, -1660.21, 0)" y2="42.41" x2="-1813.28" y1="50.7" x1="-1827.65" id="未命名的渐变_18"><stop stop-color="#007adc" offset="0"></stop><stop stop-color="#0ab0ed" offset="1"></stop></linearGradient><linearGradient xlink:href="#未命名的渐变_18" gradientTransform="translate(-2484.94)" y2="42.34" x2="2673.38" y1="50.63" x1="2659.01" id="未命名的渐变_18-2"></linearGradient><linearGradient xlink:href="#未命名的渐变_18" y2="45.04" x2="-1820.11" y1="57.79" x1="-1842.21" id="未命名的渐变_18-3"></linearGradient></defs><title>您还没有访问权限</title><g id="图层_2"><g id="图层_1-2"><ellipse ry="34.2" rx="119.2" cy="101.27" cx="119.2" class="cls-1"></ellipse><circle r="4.56" cy="82.27" cx="24.81" class="cls-2"></circle><circle r="6.87" cy="62.27" cx="211.28" class="cls-3"></circle><ellipse ry="5.19" rx="14.09" cy="108.32" cx="170.68" class="cls-4"></ellipse><path d="M67.13,99.92V70.5a226.14,226.14,0,0,0-36.07,7.75Z" class="cls-5"></path><path d="M67.46,37.69,88,47.15V110.8L68.4,101.37a2.24,2.24,0,0,1-1.27-2Z" class="cls-6" id="矩形"></path><path d="M88,47.15l68.85-8.54.33,60.47a2.24,2.24,0,0,1-1.93,2.23L88,110.8Z" class="cls-7" id="矩形-2"></path><path d="M129.8,67.71c0-4.51-3.21-8.16-7.18-8.16s-7.18,3.65-7.18,8.16a8.45,8.45,0,0,0,3.34,6.88V86.82A1.17,1.17,0,0,0,120.21,88l5.72-1.34a1.17,1.17,0,0,0,.9-1.14V74.31A8.53,8.53,0,0,0,129.8,67.71Z" class="cls-8"></path><polygon points="67.46 37.69 132.93 30.51 156.87 38.61 88.02 47.15 67.46 37.69" class="cls-9" id="矩形-3"></polygon><path d="M90.17,42.49l-5-1.52s.25-5.64.25-8.33C85.4,14.61,95.61,0,111,0s24.81,14.61,24.81,32.64l-7.89,3.47-4.08-1.52s-.11-10.84-1.56-14.8c-2.22-6.08-7.35-8.71-11.42-8.71-3.66,0-8.73,1.47-11,6.82" class="cls-10" id="形状结合"></path><path d="M115.1,1.52c15.42,0,24.81,14.61,24.81,32.64,0,.6,0,1.31,0,2h-12c0-4.78-.27-9.12-1.57-12.54A12.49,12.49,0,0,0,115,15.22c-3.66,0-8.73,1.41-11,6.54-2.4,5.55-2.3,12.71-2.24,20.72H90.17a68.7,68.7,0,0,1-.45-9v-.82C89.72,14.63,99.68,1.52,115.1,1.52Z" class="cls-11" id="形状结合备份"></path><rect transform="translate(378.97 116.21) rotate(153.53)" height="3.4" width="2.81" y="100.97" x="174.41" class="cls-12"></rect><path d="M176.74,101.07l-2.85,1.42s-7.1-10.57-10.52-17.81a8.34,8.34,0,0,1-.77-4.32l1.17-17.89H168S176.82,100,176.74,101.07Z" class="cls-13"></path><path d="M177.18,101.68c.26-.16.74.13,1.2,1.16s.91,1.49.1,2-5.5,2.76-6.83,3.42c-.45.22-.57-.29-.61-.41-.17-.53-.17-1.45,1.2-2.32,1-.72,1.5-2.24,2-2.48s.89.12,1.64-.31A15.56,15.56,0,0,0,177.18,101.68Z"></path><rect transform="translate(345.28 213.56) rotate(-180)" height="3.4" width="2.81" y="105.08" x="171.24" class="cls-14"></rect><path d="M177.26,63.95S176,76.67,175,79.78c0,0,2.2,8.8-.78,26H171s-4.89-36.92-3.86-41.82Z" class="cls-15"></path><path d="M174.3,106.5c.3,0,.61.44.56,1.58s.15,1.74-.79,1.82-6.16,0-7.64,0c-.5,0-.38-.51-.36-.64.09-.55.49-1.38,2.11-1.54,1.19-.21,2.34-1.34,2.86-1.35s.75.5,1.6.45A15.56,15.56,0,0,0,174.3,106.5Z" class="cls-16"></path><rect transform="translate(339.77 70.23) rotate(-180)" height="6.52" width="3.54" y="31.86" x="168.12" class="cls-12"></rect><path d="M165.47,28.49s.1,5.89,1.71,6.2c1.35.27,4.4-1.42,4.89-2.58.59-1.39-.66-4-.66-4l-3.47-1.68-2.45,1.15Z" class="cls-14"></path><path d="M151.17,40.62c.54,1.22,1.06,1.37,1.27,1.37a.09.09,0,0,0,.09-.1,1,1,0,0,1,0-.45.19.19,0,0,1,.33-.07l1.28,1.45-2.52,2.35A12.25,12.25,0,0,1,150,42.32a1.72,1.72,0,0,1-.11-1,1,1,0,0,1,1-.86A.3.3,0,0,1,151.17,40.62Z" class="cls-17"></path><path d="M172.11,32.9s-.49.14-.72-1a.16.16,0,0,1,.08-.17,1.17,1.17,0,0,0,.45-1.73c-.55-1.1-1.35-.1-1.55.51a.06.06,0,0,1-.12,0c-.25-.88-1.14-3.37-3-3.24-2.23.16-1.62,2.06-1.62,2.06s-.32-.08-.49-1.53c0,0-.35.39,0,1.26,0,0-.27,0-.37-.64a2.43,2.43,0,0,1,.55-2,5.37,5.37,0,0,1,4.26-1.71,2.22,2.22,0,0,1,1.35.43,1.86,1.86,0,0,1,.5.56,2.15,2.15,0,0,1,2.19,1.7c.31,1.76,0,3.1-.71,3.72A2.76,2.76,0,0,0,172.11,32.9Z" class="cls-18"></path><path d="M163.34,39.44l-2.92,9.62a.58.58,0,0,1-1,.2l-5.28-6.5-2.61,2.31,7.79,9.73a1.3,1.3,0,0,0,1.76.25l6.48-4.55Z" class="cls-19"></path><path d="M190.19,40.3c-.54,1.22-1.06,1.37-1.27,1.37a.09.09,0,0,1-.09-.1,1,1,0,0,0,0-.45.19.19,0,0,0-.33-.07l-1.28,1.45,2.52,2.35A12.25,12.25,0,0,0,191.37,42a1.72,1.72,0,0,0,.11-1,1,1,0,0,0-1-.86A.3.3,0,0,0,190.19,40.3Z" class="cls-17"></path><path d="M178.27,39.65l2.67,9.09a.58.58,0,0,0,1,.2l5.28-6.5,2.61,2.31L182,54.48a1.3,1.3,0,0,1-1.76.25l-6.48-4.55Z" class="cls-20"></path><path d="M163.2,39.77s.49-3.4,4.95-3.77c0,0,.06,1.86,1,1.94S171.69,35,171.69,35s6.28,2.48,6.67,5h0v0a1.49,1.49,0,0,1,0,.35V64.07H163.2Z" class="cls-21"></path></g></g></svg>