<?xml version="1.0" standalone="no"?><!DOCTYPE svg PUBLIC "-//W3C//DTD SVG 1.1//EN" "http://www.w3.org/Graphics/SVG/1.1/DTD/svg11.dtd"><svg height="118" node-id="1" sillyvg="true" template-height="118" template-width="238" version="1.1" viewBox="0 0 238 118" width="238" xmlns="http://www.w3.org/2000/svg" xmlns:xlink="http://www.w3.org/1999/xlink"><defs node-id="118"><linearGradient gradientUnits="userSpaceOnUse" id="未命名的渐变_217" node-id="5" spreadMethod="pad" x1="119.2" x2="119.2" y1="117.54" y2="49.14"><stop offset="0" stop-color="#ffffff"></stop><stop offset="0.38" stop-color="#fdfeff"></stop><stop offset="0.53" stop-color="#f6fafe"></stop><stop offset="0.65" stop-color="#e9f4fc"></stop><stop offset="0.75" stop-color="#d8eaf9"></stop><stop offset="0.84" stop-color="#c1def6"></stop><stop offset="0.91" stop-color="#a4cff1"></stop><stop offset="0.98" stop-color="#83beec"></stop><stop offset="1" stop-color="#7ab9eb"></stop></linearGradient><linearGradient gradientUnits="userSpaceOnUse" id="未命名的渐变_16" node-id="15" spreadMethod="pad" x1="57.36" x2="49.35" y1="73.88" y2="54.06"><stop offset="0" stop-color="#5caae8" stop-opacity="0.5"></stop><stop offset="0.29" stop-color="#99caf1" stop-opacity="0.31"></stop><stop offset="0.6" stop-color="#d0e7f8" stop-opacity="0.14"></stop><stop offset="0.85" stop-color="#f2f8fd" stop-opacity="0.04"></stop><stop offset="1" stop-color="#ffffff" stop-opacity="0"></stop></linearGradient><linearGradient gradientUnits="userSpaceOnUse" id="未命名的渐变_16-2" node-id="21" spreadMethod="pad" x1="198.73" x2="205.85" y1="74.19" y2="58.92"><stop offset="0" stop-color="#5caae8" stop-opacity="0.5"></stop><stop offset="0.29" stop-color="#99caf1" stop-opacity="0.31"></stop><stop offset="0.6" stop-color="#d0e7f8" stop-opacity="0.14"></stop><stop offset="0.85" stop-color="#f2f8fd" stop-opacity="0.04"></stop><stop offset="1" stop-color="#ffffff" stop-opacity="0"></stop></linearGradient><linearGradient gradientUnits="userSpaceOnUse" id="未命名的渐变_19" node-id="22" spreadMethod="pad" x1="24.2" x2="24.2" y1="69.04" y2="59.93"><stop offset="0" stop-color="#ffffff"></stop><stop offset="1" stop-color="#7ab9eb"></stop></linearGradient><linearGradient gradientUnits="userSpaceOnUse" id="未命名的渐变_19-2" node-id="25" spreadMethod="pad" x1="210.66" x2="210.66" y1="51.35" y2="37.61"><stop offset="0" stop-color="#ffffff"></stop><stop offset="1" stop-color="#7ab9eb"></stop></linearGradient><linearGradient gradientTransform="matrix(0 1.05 -1.45 0 308.3 -50.98)" gradientUnits="userSpaceOnUse" id="未命名的渐变_14" node-id="26" spreadMethod="pad" x1="121.31" x2="123.07" y1="104.87" y2="115.69"><stop offset="0" stop-color="#5caae8" stop-opacity="0.5"></stop><stop offset="1" stop-color="#ffffff" stop-opacity="0"></stop></linearGradient><linearGradient gradientUnits="userSpaceOnUse" id="未命名的渐变_23" node-id="29" spreadMethod="pad" x1="-7761.811" x2="-7740.5327" y1="1335.3385" y2="1335.3385"><stop offset="0" stop-color="#e4e5e6"></stop><stop offset="1" stop-color="#919396"></stop></linearGradient><linearGradient gradientUnits="userSpaceOnUse" id="未命名的渐变_248" node-id="32" spreadMethod="pad" x1="-4456.872" x2="-4456.872" y1="3436.2573" y2="3456.576"><stop offset="0" stop-color="#5caae8"></stop><stop offset="0.09" stop-color="#6cb2ea"></stop><stop offset="0.25" stop-color="#80bced"></stop><stop offset="0.43" stop-color="#8ec3ef"></stop><stop offset="0.64" stop-color="#96c8f1"></stop><stop offset="1" stop-color="#99c9f1"></stop></linearGradient><linearGradient gradientUnits="userSpaceOnUse" id="未命名的渐变_248-2" node-id="39" spreadMethod="pad" x1="-4456.872" x2="-4456.872" y1="3173.231" y2="3186.7185"><stop offset="0" stop-color="#5caae8"></stop><stop offset="0.09" stop-color="#6cb2ea"></stop><stop offset="0.25" stop-color="#80bced"></stop><stop offset="0.43" stop-color="#8ec3ef"></stop><stop offset="0.64" stop-color="#96c8f1"></stop><stop offset="1" stop-color="#99c9f1"></stop></linearGradient><linearGradient gradientUnits="userSpaceOnUse" id="未命名的渐变_23-2" node-id="40" spreadMethod="pad" x1="-6750.5537" x2="-6731.7534" y1="1324.2422" y2="1324.2422"><stop offset="0" stop-color="#e4e5e6"></stop><stop offset="1" stop-color="#919396"></stop></linearGradient><linearGradient gradientUnits="userSpaceOnUse" id="未命名的渐变_248-3" node-id="41" spreadMethod="pad" x1="-3667.6016" x2="-3667.6016" y1="3515.106" y2="3530.8538"><stop offset="0" stop-color="#5caae8"></stop><stop offset="0.09" stop-color="#6cb2ea"></stop><stop offset="0.25" stop-color="#80bced"></stop><stop offset="0.43" stop-color="#8ec3ef"></stop><stop offset="0.64" stop-color="#96c8f1"></stop><stop offset="1" stop-color="#99c9f1"></stop></linearGradient><linearGradient gradientUnits="userSpaceOnUse" id="未命名的渐变_248-4" node-id="42" spreadMethod="pad" x1="-10349.699" x2="-10349.699" y1="7214.852" y2="7256.877"><stop offset="0" stop-color="#5caae8"></stop><stop offset="0.09" stop-color="#6cb2ea"></stop><stop offset="0.25" stop-color="#80bced"></stop><stop offset="0.43" stop-color="#8ec3ef"></stop><stop offset="0.64" stop-color="#96c8f1"></stop><stop offset="1" stop-color="#99c9f1"></stop></linearGradient><linearGradient gradientUnits="userSpaceOnUse" id="未命名的渐变_234" node-id="43" spreadMethod="pad" x1="-20801.645" x2="-20801.645" y1="11246.942" y2="11322.478"><stop offset="0" stop-color="#b8daf5"></stop><stop offset="0.04" stop-color="#beddf6"></stop><stop offset="0.2" stop-color="#d2e7f9"></stop><stop offset="0.39" stop-color="#e0eefb"></stop><stop offset="0.62" stop-color="#e8f3fd"></stop><stop offset="1" stop-color="#ebf4fd"></stop></linearGradient><linearGradient gradientUnits="userSpaceOnUse" id="未命名的渐变_248-5" node-id="50" spreadMethod="pad" x1="-5177.869" x2="-5177.869" y1="1324.3239" y2="1324.691"><stop offset="0" stop-color="#5caae8"></stop><stop offset="0.09" stop-color="#6cb2ea"></stop><stop offset="0.25" stop-color="#80bced"></stop><stop offset="0.43" stop-color="#8ec3ef"></stop><stop offset="0.64" stop-color="#96c8f1"></stop><stop offset="1" stop-color="#99c9f1"></stop></linearGradient><linearGradient gradientUnits="userSpaceOnUse" id="未命名的渐变_248-6" node-id="51" spreadMethod="pad" x1="-8609.876" x2="-8609.876" y1="6972.4497" y2="7015.02"><stop offset="0" stop-color="#5caae8"></stop><stop offset="0.09" stop-color="#6cb2ea"></stop><stop offset="0.25" stop-color="#80bced"></stop><stop offset="0.43" stop-color="#8ec3ef"></stop><stop offset="0.64" stop-color="#96c8f1"></stop><stop offset="1" stop-color="#99c9f1"></stop></linearGradient><linearGradient gradientUnits="userSpaceOnUse" id="未命名的渐变_248-7" node-id="52" spreadMethod="pad" x1="-1999.1881" x2="-1999.1881" y1="3470.3127" y2="3495.9597"><stop offset="0" stop-color="#5caae8"></stop><stop offset="0.09" stop-color="#6cb2ea"></stop><stop offset="0.25" stop-color="#80bced"></stop><stop offset="0.43" stop-color="#8ec3ef"></stop><stop offset="0.64" stop-color="#96c8f1"></stop><stop offset="1" stop-color="#99c9f1"></stop></linearGradient><linearGradient gradientUnits="userSpaceOnUse" id="未命名的渐变_248-8" node-id="53" spreadMethod="pad" x1="-1999.1881" x2="-1999.1881" y1="3199.1018" y2="3212.7644"><stop offset="0" stop-color="#5caae8"></stop><stop offset="0.09" stop-color="#6cb2ea"></stop><stop offset="0.25" stop-color="#80bced"></stop><stop offset="0.43" stop-color="#8ec3ef"></stop><stop offset="0.64" stop-color="#96c8f1"></stop><stop offset="1" stop-color="#99c9f1"></stop></linearGradient><linearGradient gradientUnits="userSpaceOnUse" id="未命名的渐变_248-9" node-id="54" spreadMethod="pad" x1="-1753.1747" x2="-1753.1747" y1="3699.4949" y2="3716.5325"><stop offset="0" stop-color="#5caae8"></stop><stop offset="0.09" stop-color="#6cb2ea"></stop><stop offset="0.25" stop-color="#80bced"></stop><stop offset="0.43" stop-color="#8ec3ef"></stop><stop offset="0.64" stop-color="#96c8f1"></stop><stop offset="1" stop-color="#99c9f1"></stop></linearGradient><linearGradient gradientUnits="userSpaceOnUse" id="未命名的渐变_248-10" node-id="55" spreadMethod="pad" x1="-4822.93" x2="-4822.93" y1="1314.1975" y2="1314.635"><stop offset="0" stop-color="#5caae8"></stop><stop offset="0.09" stop-color="#6cb2ea"></stop><stop offset="0.25" stop-color="#80bced"></stop><stop offset="0.43" stop-color="#8ec3ef"></stop><stop offset="0.64" stop-color="#96c8f1"></stop><stop offset="1" stop-color="#99c9f1"></stop></linearGradient><linearGradient gradientUnits="userSpaceOnUse" id="未命名的渐变_234-2" node-id="56" spreadMethod="pad" x1="-21615.275" x2="-21615.275" y1="11297.144" y2="11371.922"><stop offset="0" stop-color="#b8daf5"></stop><stop offset="0.04" stop-color="#beddf6"></stop><stop offset="0.2" stop-color="#d2e7f9"></stop><stop offset="0.39" stop-color="#e0eefb"></stop><stop offset="0.62" stop-color="#e8f3fd"></stop><stop offset="1" stop-color="#ebf4fd"></stop></linearGradient><linearGradient gradientUnits="userSpaceOnUse" id="未命名的渐变_248-11" node-id="57" spreadMethod="pad" x1="126.44" x2="126.44" y1="54.09" y2="53.73"><stop offset="0" stop-color="#5caae8"></stop><stop offset="0.09" stop-color="#6cb2ea"></stop><stop offset="0.25" stop-color="#80bced"></stop><stop offset="0.43" stop-color="#8ec3ef"></stop><stop offset="0.64" stop-color="#96c8f1"></stop><stop offset="1" stop-color="#99c9f1"></stop></linearGradient><linearGradient gradientUnits="userSpaceOnUse" id="未命名的渐变_248-12" node-id="58" spreadMethod="pad" x1="119.91" x2="119.91" y1="15.17" y2="55.93"><stop offset="0" stop-color="#5caae8"></stop><stop offset="0.09" stop-color="#6cb2ea"></stop><stop offset="0.25" stop-color="#80bced"></stop><stop offset="0.43" stop-color="#8ec3ef"></stop><stop offset="0.64" stop-color="#96c8f1"></stop><stop offset="1" stop-color="#99c9f1"></stop></linearGradient><linearGradient gradientUnits="userSpaceOnUse" id="未命名的渐变_248-13" node-id="59" spreadMethod="pad" x1="127.26" x2="127.26" y1="53.73" y2="53.68"><stop offset="0" stop-color="#5caae8"></stop><stop offset="0.09" stop-color="#6cb2ea"></stop><stop offset="0.25" stop-color="#80bced"></stop><stop offset="0.43" stop-color="#8ec3ef"></stop><stop offset="0.64" stop-color="#96c8f1"></stop><stop offset="1" stop-color="#99c9f1"></stop></linearGradient><linearGradient gradientUnits="userSpaceOnUse" id="未命名的渐变_23-3" node-id="60" spreadMethod="pad" x1="-1555.6559" x2="-1550.3136" y1="2401.5706" y2="2401.5706"><stop offset="0" stop-color="#e4e5e6"></stop><stop offset="1" stop-color="#919396"></stop></linearGradient><linearGradient gradientUnits="userSpaceOnUse" id="未命名的渐变_23-4" node-id="61" spreadMethod="pad" x1="-1780.7097" x2="-1774.8693" y1="2167.1787" y2="2167.1787"><stop offset="0" stop-color="#e4e5e6"></stop><stop offset="1" stop-color="#919396"></stop></linearGradient><linearGradient gradientUnits="userSpaceOnUse" id="未命名的渐变_248-14" node-id="62" spreadMethod="pad" x1="-7754.925" x2="-7754.925" y1="10796.684" y2="10864.51"><stop offset="0" stop-color="#5caae8"></stop><stop offset="0.09" stop-color="#6cb2ea"></stop><stop offset="0.25" stop-color="#80bced"></stop><stop offset="0.43" stop-color="#8ec3ef"></stop><stop offset="0.64" stop-color="#96c8f1"></stop><stop offset="1" stop-color="#99c9f1"></stop></linearGradient><linearGradient gradientUnits="userSpaceOnUse" id="未命名的渐变_234-3" node-id="63" spreadMethod="pad" x1="-20869.012" x2="-20869.012" y1="11395.66" y2="11467.172"><stop offset="0" stop-color="#b8daf5"></stop><stop offset="0.04" stop-color="#beddf6"></stop><stop offset="0.2" stop-color="#d2e7f9"></stop><stop offset="0.39" stop-color="#e0eefb"></stop><stop offset="0.62" stop-color="#e8f3fd"></stop><stop offset="1" stop-color="#ebf4fd"></stop></linearGradient><linearGradient gradientTransform="matrix(-1 0.03 0.03 1 1675.98 -20.44)" gradientUnits="userSpaceOnUse" id="未命名的渐变_18" node-id="64" spreadMethod="pad" x1="1531.31" x2="1524.51" y1="40.08" y2="36.4"><stop offset="0" stop-color="#007adc"></stop><stop offset="1" stop-color="#0ab0ed"></stop></linearGradient><linearGradient gradientUnits="userSpaceOnUse" id="未命名的渐变_18-2" node-id="67" spreadMethod="pad" x1="-135.83" x2="-109.49" y1="71.58" y2="56.37"><stop offset="0" stop-color="#007adc"></stop><stop offset="1" stop-color="#0ab0ed"></stop></linearGradient></defs><g node-id="543"><path d="M 238.40 83.34 C 238.40 102.23 185.03 117.54 119.20 117.54 C 53.37 117.54 0.00 102.23 0.00 83.34 C -0.00 64.45 53.37 49.14 119.20 49.14 C 185.03 49.14 238.40 64.45 238.40 83.34 Z" fill="url(#未命名的渐变_217)" fill-rule="nonzero" group-id="1" node-id="459" stroke="none" target-height="68.4" target-width="238.4" target-x="0" target-y="49.14"></path><path d="M 59.67 53.70 C 52.76 54.85 46.29 56.19 40.34 57.70 L 59.67 72.95 Z" fill="url(#未命名的渐变_16)" fill-rule="nonzero" group-id="1" node-id="461" stroke="none" target-height="19.249996" target-width="19.329998" target-x="40.34" target-y="53.7"></path><path d="M 198.00 57.67 L 198.00 73.84 L 212.81 62.15 C 208.34 60.54 203.38 59.00 198.00 57.67 Z" fill="url(#未命名的渐变_16-2)" fill-rule="nonzero" group-id="1" node-id="463" stroke="none" target-height="16.169998" target-width="14.809998" target-x="198" target-y="57.67"></path><path d="M 28.76 64.48 C 28.76 67.00 26.72 69.04 24.20 69.04 C 21.68 69.04 19.64 67.00 19.64 64.48 C 19.64 61.96 21.68 59.92 24.20 59.92 C 26.72 59.92 28.76 61.96 28.76 64.48 Z" fill="url(#未命名的渐变_19)" fill-rule="nonzero" group-id="1" node-id="465" stroke="none" target-height="9.120003" target-width="9.120001" target-x="19.64" target-y="59.92"></path><path d="M 217.53 44.48 C 217.53 48.27 214.45 51.35 210.66 51.35 C 206.87 51.35 203.79 48.27 203.79 44.48 C 203.79 40.69 206.87 37.61 210.66 37.61 C 214.45 37.61 217.53 40.69 217.53 44.48 Z" fill="url(#未命名的渐变_19-2)" fill-rule="nonzero" group-id="1" node-id="467" stroke="none" target-height="13.739998" target-width="13.7400055" target-x="203.79" target-y="37.61"></path><g node-id="544"><path d="M 149.14 70.18 L 152.56 70.85 L 155.46 71.92 L 157.97 73.43 L 159.73 75.12 L 160.56 76.43 L 160.99 77.74 L 161.04 79.09 L 160.69 80.39 L 159.99 81.58 L 158.88 82.67 L 156.79 83.93 L 154.01 84.85 L 150.95 85.26 L 147.46 85.15 L 144.04 84.48 L 141.15 83.41 L 138.64 81.90 L 136.88 80.21 L 136.04 78.90 L 135.62 77.59 L 135.56 76.24 L 135.91 74.94 L 136.62 73.75 L 137.72 72.66 L 139.81 71.40 L 142.60 70.48 L 145.66 70.07 L 149.14 70.18 Z" fill="url(#未命名的渐变_14)" fill-rule="nonzero" group-id="1,2" node-id="471" stroke="none" target-height="15.190002" target-width="25.479996" target-x="135.56" target-y="70.07"></path></g><g node-id="545"><path d="M 91.99 40.62 L 77.82 40.24 L 84.56 40.22 L 99.23 40.60 L 91.99 40.62 Z" fill="url(#未命名的渐变_23)" fill-rule="nonzero" group-id="1,3" id="路径" node-id="79" stroke="none" target-height="0.3999977" target-width="21.410004" target-x="77.82" target-y="40.22"></path><path d="M 72.49 57.16 L 72.49 75.73 L 59.67 72.94 L 59.67 55.46 L 72.49 57.16 Z" fill="url(#未命名的渐变_248)" fill-rule="nonzero" group-id="1,3" id="路径-2" node-id="80" stroke="none" target-height="20.270004" target-width="12.82" target-x="59.67" target-y="55.46"></path><path d="M 72.49 40.70 L 59.67 40.30 L 59.67 27.91 L 72.49 27.23 L 72.49 40.70 Z" fill="url(#未命名的渐变_248-2)" fill-rule="nonzero" group-id="1,3" id="路径-3" node-id="81" stroke="none" target-height="13.470001" target-width="12.82" target-x="59.67" target-y="27.23"></path><path d="M 66.09 40.72 L 53.72 40.32 L 59.67 40.30 L 72.49 40.70 L 66.09 40.72 Z" fill="url(#未命名的渐变_23-2)" fill-rule="nonzero" group-id="1,3" id="路径-4" node-id="82" stroke="none" target-height="0.42000198" target-width="18.769997" target-x="53.72" target-y="40.3"></path><path d="M 43.81 57.65 L 33.06 55.86 L 33.06 41.80 L 43.81 42.34 L 43.81 57.65 Z" fill="url(#未命名的渐变_248-3)" fill-rule="nonzero" group-id="1,3" id="路径-5" node-id="83" stroke="none" target-height="15.850002" target-width="10.75" target-x="33.06" target-y="41.8"></path><path d="M 43.81 42.34 L 33.06 41.80 L 49.21 3.23 L 61.23 0.38 L 43.81 42.34 Z" fill="url(#未命名的渐变_248-4)" fill-rule="nonzero" group-id="1,3" id="路径-6" node-id="84" stroke="none" target-height="41.96" target-width="28.169998" target-x="33.06" target-y="0.38"></path><path d="M 99.23 40.60 L 99.23 56.72 L 91.99 56.85 L 91.99 75.20 L 89.49 75.27 L 72.49 75.73 L 72.49 57.16 L 59.67 57.38 L 43.81 57.65 L 43.81 42.34 L 61.23 0.38 L 81.72 0.94 L 66.08 40.72 L 72.49 40.71 L 72.49 27.23 L 86.74 27.33 L 91.99 27.36 L 91.99 40.62 L 99.23 40.60 Z" fill="url(#未命名的渐变_234)" fill-rule="nonzero" group-id="1,3" id="路径-7" node-id="85" stroke="none" target-height="75.350006" target-width="55.420002" target-x="43.81" target-y="0.38"></path></g><g node-id="546"><path d="M 164.08 42.34 L 172.74 41.93 L 178.83 41.94 L 170.70 42.35 L 164.08 42.34 Z" fill="url(#未命名的渐变_248-5)" fill-rule="nonzero" group-id="1,4" id="路径-8" node-id="87" stroke="none" target-height="0.41999817" target-width="14.75" target-x="164.08" target-y="41.93"></path><path d="M 180.41 2.10 L 187.78 5.02 L 172.74 41.93 L 164.08 42.34 L 180.41 2.10 Z" fill="url(#未命名的渐变_248-6)" fill-rule="nonzero" group-id="1,4" id="路径-9" node-id="88" stroke="none" target-height="40.24" target-width="23.699997" target-x="164.08" target-y="2.1"></path><path d="M 197.99 57.26 L 197.99 73.84 L 191.50 76.80 L 191.50 59.07 L 197.99 57.26 Z" fill="url(#未命名的渐变_248-7)" fill-rule="nonzero" group-id="1,4" id="路径-10" node-id="89" stroke="none" target-height="19.540005" target-width="6.4900055" target-x="191.5" target-y="57.26"></path><path d="M 191.50 28.77 L 197.99 29.48 L 197.99 41.98 L 191.50 42.40 L 191.50 28.77 Z" fill="url(#未命名的渐变_248-8)" fill-rule="nonzero" group-id="1,4" id="路径-11" node-id="90" stroke="none" target-height="13.630001" target-width="6.4900055" target-x="191.5" target-y="28.77"></path><path d="M 199.50 42.42 L 205.34 42.00 L 205.34 57.33 L 199.50 59.14 L 199.50 42.42 Z" fill="url(#未命名的渐变_248-9)" fill-rule="nonzero" group-id="1,4" id="路径-12" node-id="91" stroke="none" target-height="17.14" target-width="5.8399963" target-x="199.5" target-y="42"></path><path d="M 191.50 42.40 L 197.99 41.98 L 205.34 42.00 L 199.50 42.42 L 191.50 42.40 Z" fill="url(#未命名的渐变_248-10)" fill-rule="nonzero" group-id="1,4" id="路径-13" node-id="92" stroke="none" target-height="0.43999863" target-width="13.839996" target-x="191.5" target-y="41.98"></path><path d="M 199.51 42.42 L 199.51 59.15 L 197.99 59.13 L 191.50 59.07 L 191.50 76.80 L 170.70 76.45 L 170.70 58.85 L 141.91 58.56 L 141.91 43.77 L 159.15 2.45 L 180.41 2.10 L 164.08 42.34 L 170.70 42.35 L 170.70 28.85 L 191.50 28.77 L 191.50 42.40 L 199.51 42.42 Z" fill="url(#未命名的渐变_234-2)" fill-rule="nonzero" group-id="1,4" id="路径-14" node-id="93" stroke="none" target-height="74.700005" target-width="57.59999" target-x="141.91" target-y="2.1"></path></g><g node-id="547"><path d="M 126.29 54.09 L 127.11 54.09 L 127.11 53.74 L 125.72 54.05 C 125.91 54.08 126.10 54.09 126.29 54.09 Z" fill="url(#未命名的渐变_248-11)" fill-rule="nonzero" group-id="1,5" node-id="493" stroke="none" target-height="0.34999847" target-width="1.3899994" target-x="125.72" target-y="53.74"></path><path d="M 124.09 53.53 C 123.88 53.40 123.67 53.26 123.49 53.09 C 123.31 52.93 123.15 52.76 123.00 52.57 L 122.90 52.44 C 122.76 52.25 122.63 52.05 122.49 51.83 L 122.49 51.83 C 122.37 51.60 122.24 51.34 122.12 51.06 C 122.12 50.99 122.06 50.94 122.04 50.87 C 121.93 50.59 121.82 50.30 121.72 49.97 L 121.72 49.87 C 121.63 49.56 121.55 49.24 121.47 48.87 C 121.45 48.80 121.43 48.72 121.41 48.65 C 121.34 48.29 121.26 47.92 121.19 47.52 C 121.18 47.36 121.16 47.20 121.12 47.05 C 121.12 46.75 121.03 46.44 120.99 46.12 C 120.98 45.93 120.95 45.74 120.92 45.55 C 120.92 45.23 120.85 44.90 120.82 44.55 C 120.79 44.20 120.82 43.98 120.75 43.68 L 120.75 43.46 C 120.75 43.40 120.75 43.34 120.75 43.28 L 120.75 27.00 C 120.75 27.00 120.75 26.94 120.75 26.91 C 120.76 26.49 120.80 26.07 120.87 25.65 L 120.87 25.38 C 120.93 24.90 120.99 24.44 121.06 24.01 L 121.06 23.90 C 121.13 23.45 121.22 23.03 121.31 22.63 C 121.40 22.22 121.50 21.85 121.61 21.49 C 121.72 21.13 121.84 20.81 121.97 20.49 C 122.09 20.21 122.23 19.93 122.38 19.66 C 122.52 19.41 122.67 19.18 122.85 18.96 C 123.00 18.78 123.17 18.60 123.34 18.44 L 123.44 18.36 C 123.73 18.09 124.07 17.88 124.44 17.74 C 124.62 17.67 124.80 17.61 124.99 17.57 L 125.25 17.50 C 125.54 17.45 125.84 17.42 126.14 17.42 L 127.09 17.42 L 127.36 17.47 L 123.03 16.47 C 121.01 14.96 118.32 14.72 116.06 15.84 C 113.81 16.97 112.39 19.28 112.39 21.80 L 112.39 49.28 C 112.39 51.72 113.73 53.97 115.88 55.13 C 118.03 56.29 120.64 56.19 122.69 54.85 L 122.60 54.75 L 125.71 54.05 C 125.37 54.02 125.03 53.95 124.71 53.84 C 124.49 53.76 124.29 53.65 124.09 53.53 Z" fill="url(#未命名的渐变_248-12)" fill-rule="nonzero" group-id="1,5" node-id="495" stroke="none" target-height="41.57" target-width="14.970001" target-x="112.39" target-y="14.72"></path><path d="M 127.14 53.73 L 127.14 53.73 L 127.38 53.68 L 127.14 53.73 Z" fill="url(#未命名的渐变_248-13)" fill-rule="nonzero" group-id="1,5" node-id="497" stroke="none" target-height="0.049999237" target-width="0.23999786" target-x="127.14" target-y="53.68"></path><g node-id="550"><path d="M 146.77 32.00 L 152.01 32.32 L 152.01 38.60 L 152.01 39.55 L 146.77 39.91 C 146.77 39.57 146.77 39.22 146.77 38.91 C 146.77 38.60 146.77 38.21 146.77 37.85 C 146.79 37.49 146.79 37.14 146.77 36.78 L 146.77 32.82 C 146.79 32.51 146.79 32.21 146.77 31.90" fill="url(#未命名的渐变_23-3)" fill-rule="nonzero" group-id="1,5,8" node-id="500" stroke="none" target-height="8.01" target-width="5.23999" target-x="146.77" target-y="31.9"></path><path d="M 146.74 40.00 L 151.98 39.64 C 151.98 40.12 151.92 40.64 151.88 41.07 C 151.84 41.50 151.80 42.00 151.75 42.46 C 151.70 42.92 151.65 43.38 151.59 43.82 C 151.53 44.26 151.47 44.70 151.40 45.14 L 146.11 45.97 C 146.18 45.50 146.25 44.97 146.32 44.52 C 146.39 44.07 146.44 43.52 146.49 43.04 C 146.54 42.56 146.59 42.04 146.63 41.52 C 146.67 41.00 146.70 40.52 146.74 39.96" fill="url(#未命名的渐变_23-4)" fill-rule="nonzero" group-id="1,5,8" node-id="502" stroke="none" target-height="6.330002" target-width="5.869995" target-x="146.11" target-y="39.64"></path><path d="M 152.09 35.71 C 152.09 34.54 152.09 33.40 152.00 32.28 L 152.00 32.28 C 152.00 31.66 151.93 31.06 151.88 30.47 L 151.88 30.14 L 151.88 29.63 C 151.87 29.32 151.84 29.01 151.80 28.71 C 151.80 28.41 151.70 27.88 151.64 27.51 C 151.66 27.39 151.66 27.28 151.64 27.16 L 151.64 27.00 C 151.57 26.44 151.47 25.89 151.37 25.34 L 151.30 24.96 L 151.30 24.69 C 151.28 24.55 151.25 24.41 151.21 24.27 C 151.15 24.00 151.10 23.71 151.04 23.44 C 150.98 23.17 150.92 22.94 150.85 22.68 C 150.78 22.42 150.74 22.23 150.68 22.01 L 150.58 21.63 C 150.45 21.15 150.31 20.63 150.16 20.22 C 150.15 20.13 150.12 20.04 150.08 19.95 C 150.08 19.93 150.08 19.91 150.08 19.89 C 149.90 19.32 149.70 18.78 149.49 18.23 L 149.42 18.05 C 149.24 17.59 149.04 17.16 148.85 16.72 C 148.75 16.50 148.66 16.26 148.56 16.05 L 148.50 15.95 L 148.50 15.83 C 148.27 15.36 148.02 14.91 147.77 14.47 C 147.69 14.33 147.61 14.17 147.53 14.03 C 147.16 13.41 146.77 12.81 146.37 12.23 L 146.37 12.23 C 146.28 12.10 146.17 11.98 146.07 11.85 C 145.75 11.43 145.45 11.02 145.07 10.63 L 145.00 10.55 C 144.78 10.28 144.55 10.03 144.30 9.78 C 144.18 9.65 144.04 9.52 143.91 9.40 L 143.81 9.29 L 143.74 9.22 L 143.40 9.00 C 143.15 8.76 142.90 8.53 142.63 8.31 C 142.52 8.21 142.41 8.13 142.30 8.04 L 142.09 7.87 L 141.84 7.66 L 141.30 7.25 L 140.74 6.86 L 140.67 6.86 L 140.60 6.86 L 140.18 6.59 L 139.60 6.23 L 139.09 5.95 L 139.01 5.95 L 139.01 5.95 L 138.63 5.75 L 138.00 5.38 L 137.46 5.14 L 137.19 5.14 L 130.63 2.34 C 131.28 2.61 131.90 2.92 132.51 3.25 L 132.57 3.25 C 133.17 3.57 133.74 3.92 134.31 4.25 L 134.38 4.25 C 134.94 4.63 135.48 5.05 136.00 5.49 L 136.22 5.67 C 136.69 6.06 137.15 6.50 137.60 6.90 L 137.79 7.09 C 138.22 7.52 138.62 7.97 139.05 8.45 C 139.41 8.87 139.75 9.31 140.05 9.78 C 140.17 9.94 140.29 10.08 140.40 10.24 C 140.85 10.86 141.23 11.52 141.67 12.24 C 141.76 12.41 141.84 12.58 141.94 12.75 C 142.25 13.29 142.52 13.84 142.77 14.41 C 142.90 14.68 143.02 14.98 143.14 15.24 C 143.36 15.71 143.57 16.19 143.76 16.69 C 144.03 17.36 144.28 18.05 144.51 18.76 C 144.52 18.86 144.55 18.96 144.60 19.05 C 144.80 19.69 144.99 20.35 145.17 21.05 C 145.24 21.29 145.29 21.54 145.35 21.79 C 145.49 22.35 145.62 22.92 145.74 23.50 L 145.89 24.27 C 146.04 25.05 146.17 25.84 146.29 26.66 L 146.29 27.04 C 146.39 27.80 146.48 28.57 146.55 29.35 C 146.54 29.54 146.56 29.73 146.61 29.91 C 146.78 31.85 146.86 33.88 146.86 35.99 C 146.90 39.98 146.57 43.96 145.86 47.89 L 145.86 48.14 C 145.69 48.97 145.51 49.80 145.31 50.58 C 145.31 50.62 145.31 50.66 145.31 50.70 C 145.10 51.53 144.88 52.30 144.63 53.07 C 144.61 53.13 144.59 53.18 144.57 53.24 C 144.32 54.00 144.05 54.74 143.74 55.46 L 143.74 55.55 C 143.44 56.29 143.13 57.00 142.79 57.69 L 142.79 57.69 C 142.46 58.38 142.10 59.04 141.73 59.69 L 141.73 59.78 C 141.36 60.40 140.97 60.99 140.57 61.57 L 140.46 61.71 C 140.07 62.26 139.63 62.79 139.24 63.29 L 139.15 63.40 C 138.74 63.88 138.32 64.34 137.86 64.79 L 137.58 65.06 C 137.13 65.49 136.67 65.89 136.20 66.30 L 136.04 66.42 C 135.59 66.79 135.12 67.13 134.64 67.42 L 134.37 67.61 C 133.86 67.94 133.37 68.26 132.81 68.55 L 132.47 68.73 C 131.91 69.02 131.35 69.30 130.76 69.56 L 137.32 66.76 C 137.86 66.54 138.38 66.28 138.89 66.00 L 139.20 65.83 L 139.47 65.70 C 139.87 65.48 140.26 65.24 140.64 64.97 L 140.90 64.80 L 141.46 64.42 C 141.70 64.25 141.94 64.05 142.18 63.86 L 142.33 63.74 C 142.65 63.47 142.98 63.19 143.33 62.91 L 143.64 62.60 L 143.78 62.48 L 143.90 62.35 C 144.27 61.98 144.65 61.59 145.00 61.19 L 145.08 61.08 L 145.16 60.99 L 145.52 60.56 L 146.03 59.90 L 146.30 59.53 L 146.39 59.40 L 146.52 59.22 C 146.68 58.99 146.84 58.75 146.99 58.51 L 147.39 57.88 L 147.45 57.77 L 147.45 57.69 C 147.54 57.53 147.63 57.38 147.72 57.22 C 147.81 57.06 147.97 56.78 148.09 56.55 L 148.44 55.86 L 148.44 55.86 C 148.56 55.63 148.66 55.39 148.77 55.15 C 148.88 54.91 148.99 54.68 149.09 54.43 L 149.31 53.90 L 149.31 53.81 L 149.31 53.69 L 149.59 52.94 C 149.69 52.67 149.79 52.39 149.88 52.11 L 150.00 51.76 L 150.00 51.60 C 150.02 51.49 150.06 51.38 150.11 51.27 C 150.20 50.99 150.28 50.70 150.37 50.44 C 150.46 50.18 150.53 49.86 150.61 49.61 L 150.61 49.39 C 150.68 49.12 150.74 48.87 150.80 48.56 C 150.86 48.25 150.96 47.88 151.03 47.56 L 151.10 47.14 C 151.10 47.10 151.10 47.07 151.10 47.03 L 151.10 46.91 L 151.17 46.49 C 151.24 46.13 151.30 45.77 151.36 45.41 L 151.36 45.41 C 151.86 42.20 152.11 38.96 152.09 35.71 Z" fill="url(#未命名的渐变_248-14)" fill-rule="nonzero" group-id="1,5,8" node-id="504" stroke="none" target-height="67.22" target-width="21.479996" target-x="130.63" target-y="2.34"></path></g><path d="M 145.71 23.39 C 145.49 22.31 145.24 21.27 144.97 20.26 C 143.92 16.18 142.06 12.35 139.50 9.00 C 137.19 6.03 134.18 3.69 130.73 2.19 C 126.96 0.62 122.90 -0.13 118.82 0.00 C 114.72 -0.01 110.67 0.84 106.92 2.50 C 103.51 4.09 100.54 6.49 98.28 9.50 C 95.82 12.82 94.02 16.59 93.00 20.60 C 91.76 25.54 91.16 30.62 91.23 35.71 C 91.16 40.80 91.76 45.88 93.00 50.82 C 94.01 54.83 95.79 58.61 98.24 61.94 C 100.49 64.92 103.44 67.31 106.83 68.89 C 110.58 70.55 114.63 71.40 118.73 71.39 C 120.64 71.43 122.55 71.30 124.43 71.00 C 126.58 70.68 128.69 70.09 130.69 69.24 C 134.15 67.74 137.18 65.40 139.51 62.43 C 142.08 59.08 143.95 55.25 145.00 51.17 C 146.31 46.12 146.94 40.92 146.87 35.71 C 146.89 31.58 146.50 27.45 145.71 23.39 Z M 123.71 51.31 C 123.39 52.62 122.71 53.81 121.76 54.76 C 120.93 55.47 119.85 55.83 118.76 55.76 C 117.64 55.79 116.55 55.40 115.70 54.66 C 114.73 53.70 114.04 52.51 113.70 51.19 C 113.15 49.16 112.82 47.08 112.70 44.98 C 112.48 42.42 112.39 39.33 112.39 35.66 C 112.39 31.99 112.48 28.87 112.70 26.31 C 112.82 24.21 113.15 22.13 113.70 20.10 C 114.04 18.79 114.73 17.60 115.70 16.66 C 116.55 15.92 117.64 15.53 118.76 15.57 C 119.85 15.50 120.93 15.85 121.76 16.57 C 122.71 17.51 123.39 18.70 123.71 20.00 C 124.26 22.03 124.59 24.12 124.71 26.22 C 124.92 28.80 125.01 31.91 125.01 35.62 C 125.01 39.33 124.92 42.41 124.71 44.99 C 124.59 47.10 124.25 49.18 123.71 51.22 Z" fill="url(#未命名的渐变_234-3)" fill-rule="nonzero" group-id="1,5" id="形状" node-id="102" stroke="none" target-height="71.56" target-width="55.78" target-x="91.16" target-y="-0.13"></path></g><path d="M 128.91 78.65 C 129.04 77.39 129.46 77.10 129.65 77.03 C 129.67 77.02 129.70 77.02 129.72 77.04 C 129.74 77.05 129.76 77.07 129.76 77.10 C 129.77 77.24 129.82 77.38 129.89 77.51 C 129.92 77.57 129.98 77.61 130.05 77.61 C 130.12 77.61 130.18 77.57 130.21 77.51 L 130.99 75.65 L 127.99 74.43 C 127.64 75.42 127.43 76.45 127.36 77.49 C 127.33 77.82 127.40 78.14 127.56 78.43 C 127.76 78.88 128.29 79.09 128.75 78.90 C 128.85 78.85 128.91 78.76 128.91 78.65 Z" fill="#fed4c2" fill-rule="nonzero" group-id="1" node-id="509" stroke="none" target-height="4.659996" target-width="3.6600037" target-x="127.33" target-y="74.43"></path><path d="M 160.02 102.04 L 162.69 102.04 L 162.69 105.27 L 160.02 105.27 Z" fill="#ffd5c3" fill-rule="nonzero" group-id="1" node-id="511" stroke="none" target-height="3.2299957" target-width="2.6699982" target-x="160.02" target-y="102.04"></path><path d="M 167.16 97.20 L 169.76 96.62 L 170.53 100.10 L 167.93 100.67 Z" fill="#feb99b" fill-rule="nonzero" group-id="1,6" node-id="515" stroke="none" target-height="4.0499954" target-width="3.369995" target-x="167.16" target-y="96.62"></path><path d="M 155.00 74.91 C 154.84 73.65 154.41 73.38 154.21 73.32 C 154.19 73.31 154.16 73.31 154.14 73.33 C 154.12 73.34 154.10 73.36 154.10 73.39 C 154.09 73.53 154.05 73.67 153.98 73.80 C 153.95 73.86 153.89 73.90 153.82 73.90 C 153.75 73.90 153.69 73.86 153.66 73.80 L 152.83 71.96 L 155.83 70.66 C 156.20 71.62 156.44 72.63 156.55 73.66 C 156.59 73.99 156.52 74.32 156.37 74.61 C 156.18 75.07 155.66 75.29 155.20 75.12 C 155.10 75.09 155.02 75.01 155.00 74.91 Z" fill="#fed4c2" fill-rule="nonzero" group-id="1" node-id="518" stroke="none" target-height="4.6299973" target-width="3.7599945" target-x="152.83" target-y="70.66"></path><path d="M 148.90 50.30 L 151.22 59.45 L 156.07 70.53 L 152.53 72.07 L 147.07 61.31 L 143.04 48.35 L 148.90 50.30 Z" fill="url(#未命名的渐变_18)" fill-rule="nonzero" group-id="1" node-id="520" stroke="none" target-height="23.720001" target-width="13.030014" target-x="143.04" target-y="48.35"></path><path d="M 140.42 74.39 C 140.42 74.39 142.12 80.69 161.04 80.39 C 162.18 86.32 164.15 92.07 166.88 97.46 L 170.28 97.92 L 167.28 78.84 C 167.01 77.17 165.90 75.75 164.34 75.09 C 160.67 73.53 149.00 71.58 149.00 71.58 Z" fill="#343434" fill-rule="nonzero" group-id="1" node-id="522" stroke="none" target-height="26.339996" target-width="29.86" target-x="140.42" target-y="71.58"></path><path d="M 137.72 74.00 C 137.72 74.00 137.30 82.85 156.54 84.45 C 156.79 90.52 157.91 96.52 159.84 102.27 L 162.98 102.44 L 163.30 83.19 C 163.33 81.50 162.49 79.92 161.08 79.00 C 157.79 76.85 146.71 72.83 146.71 72.83 Z" fill="#5c5c5c" fill-rule="nonzero" group-id="1" node-id="524" stroke="none" target-height="29.61" target-width="26.029999" target-x="137.3" target-y="72.83"></path><path d="M 160.00 104.07 C 159.74 103.95 159.31 104.26 159.00 105.29 C 158.69 106.32 158.29 106.79 159.10 107.17 C 159.91 107.55 164.57 109.24 165.89 109.74 C 166.34 109.91 166.40 109.41 166.42 109.29 C 166.53 108.77 166.42 107.90 165.06 107.22 C 164.06 106.64 163.43 105.22 162.96 105.06 C 162.49 104.90 162.13 105.26 161.38 104.93 C 160.90 104.67 160.44 104.38 160.00 104.07 Z" fill="#3e3e3e" fill-rule="nonzero" group-id="1" node-id="526" stroke="none" target-height="5.9600067" target-width="8.2400055" target-x="158.29" target-y="103.95"></path><path d="M 167.41 99.06 C 167.14 98.95 166.73 99.28 166.41 100.32 C 166.09 101.36 165.77 101.85 166.59 102.20 C 167.41 102.55 172.15 104.03 173.49 104.46 C 173.94 104.61 173.98 104.11 174.00 103.99 C 174.08 103.47 174.00 102.60 172.55 101.99 C 171.55 101.45 170.83 100.09 170.36 99.93 C 169.89 99.77 169.54 100.16 168.78 99.87 C 168.31 99.62 167.85 99.35 167.41 99.06 Z" fill="#3e3e3e" fill-rule="nonzero" group-id="1" node-id="528" stroke="none" target-height="5.6600037" target-width="8.309998" target-x="165.77" target-y="98.95"></path><path d="M 139.84 44.21 L 143.16 43.66 L 144.17 49.78 L 140.86 50.33 Z" fill="#feb99b" fill-rule="nonzero" group-id="1,7" node-id="532" stroke="none" target-height="6.670002" target-width="4.330002" target-x="139.84" target-y="43.66"></path><path d="M 144.87 39.64 C 144.87 39.64 146.42 45.02 145.05 45.76 C 143.90 46.38 140.66 45.69 139.89 44.76 C 138.97 43.66 139.37 40.92 139.37 40.92 L 142.00 38.45 L 144.55 38.82 Z" fill="#ffd5c3" fill-rule="nonzero" group-id="1" node-id="535" stroke="none" target-height="7.9300003" target-width="7.449997" target-x="138.97" target-y="38.45"></path><path d="M 140.06 45.50 C 140.06 45.50 140.55 45.50 140.44 44.42 C 140.43 44.36 140.38 44.30 140.32 44.29 C 139.99 44.24 139.70 44.06 139.53 43.78 C 139.36 43.50 139.32 43.15 139.42 42.84 C 139.61 41.68 140.62 42.38 140.97 42.84 C 140.98 42.86 141.00 42.88 141.03 42.88 C 141.05 42.88 141.07 42.86 141.08 42.84 C 141.08 41.97 141.17 39.46 142.88 39.06 C 144.95 38.58 144.88 40.48 144.88 40.48 C 144.88 40.48 145.15 40.32 144.88 38.95 C 144.88 38.95 145.31 39.21 145.26 40.08 C 145.26 40.08 145.49 39.98 145.42 39.39 C 145.34 38.73 144.97 38.13 144.42 37.76 C 143.10 36.99 141.50 36.86 140.07 37.39 C 139.63 37.52 139.24 37.79 138.96 38.16 C 138.82 38.35 138.71 38.58 138.66 38.81 C 137.68 39.06 137.04 40.00 137.17 41.00 C 137.37 42.68 138.06 43.81 138.85 44.19 C 139.39 44.47 139.82 44.94 140.06 45.50 Z" fill="#301b20" fill-rule="nonzero" group-id="1" node-id="537" stroke="none" target-height="8.639999" target-width="8.450012" target-x="137.04" target-y="36.86"></path><path d="M 152.00 73.14 L 148.90 50.30 C 148.90 50.30 148.00 47.16 143.76 47.39 C 143.76 47.39 143.94 49.14 143.09 49.34 C 142.24 49.54 140.30 46.91 140.30 46.91 C 140.30 46.91 135.43 49.65 134.75 51.91 L 134.75 51.91 C 134.72 52.00 134.70 52.08 134.69 52.17 L 132.25 63.04 L 127.71 74.30 L 131.29 75.73 L 136.38 65.00 L 137.76 75.10 Z" fill="url(#未命名的渐变_18-2)" fill-rule="nonzero" group-id="1" node-id="539" stroke="none" target-height="28.820004" target-width="24.29" target-x="127.71" target-y="46.91"></path><path d="M 136.45 64.83 L 136.37 64.99 L 136.37 64.99 C 136.96 64.89 137.43 64.44 137.55 63.86 L 140.00 52.19 Z" fill="#007adc" fill-rule="nonzero" group-id="1" node-id="541" stroke="none" target-height="12.799999" target-width="3.630005" target-x="136.37" target-y="52.19"></path></g></svg>